{"title":"Bewakoofiyaan (2014)-DVDRip-1CD- XviD E-Subs {VikkyMaxx}[SilverR","uid":10115448,"size":738923694,"categoryP":"video","categoryS":"movies","magnet":"?xt=urn:btih:bdaa25f76cd9417454aa1e513161b10abfb3d7b4&amp;dn=Bewakoofiyaan+%282014%29-DVDRip-1CD-+XviD+E-Subs+%7BVikkyMaxx%7D%5BSilverR&amp;tr=udp%3A%2F%2Ftracker.openbittorrent.com%3A80&amp;tr=udp%3A%2F%2Fopen.demonii.com%3A1337&amp;tr=udp%3A%2F%2Ftracker.coppersurfer.tk%3A6969&amp;tr=udp%3A%2F%2Fexodus.desync.com%3A6969","seeders":1,"leechers":0,"uploader":"shailendramaxx","files":20,"time":1399587598,"description":"VikkyMaxx SilverRG Presents:-\n\n\nGeneral:-\n \nComplete name :Bewakoofiyaan (2014)-DVDRip-1CD- XviD{VikkyMaxx}[SilverRG]\nFormat : AVI \nFormat/Info : Audio Video Interleave \nFile size : 694 MiB \nDuration : 1h 57mn \nOverall bit rate : 823 Kbps \n\nVideo:-\n \nID : 0 \nFormat : MPEG-4 Visual \nFormat profile : Advanced Simple@L5 \nFormat settings, BVOP : 2 \nFormat settings, QPel : No \nFormat settings, GMC : No warppoints \nFormat settings, Matrix : Default (H.263) \nCodec ID : XVID \nCodec ID/Hint : XviD \nDuration : 1h 57mn \nBit rate : 736 Kbps \nWidth : 640 pixels \nHeight : 272 pixels \nDisplay aspect ratio : 2.35:1 \nFrame rate : 29.970 fps \nColor space : YUV \nChroma subsampling : 4:2:0 \nBit depth : 8 bits \nScan type : Progressive \nCompression mode : Lossy \nBits/(Pixel*Frame) : 0.141 \nStream size : 621 MiB (89%) \nWriting library : XviD 1.2.1 (UTC 2008-12-04) \n\nAudio:-\n \nID : 1 \nFormat : MPEG Audio \nFormat version : Version 1 \nFormat profile : Layer 3 \nMode : Joint stereo \nMode extension : MS Stereo \nCodec ID : 55 \nCodec ID/Hint : MP3 \nDuration : 1h 57mn \nBit rate mode : Constant \nBit rate : 80.0 Kbps \nChannel(s) : 2 channels \nSampling rate : 32.0 KHz \nCompression mode : Lossy \nStream size : 67.3 MiB (10%) \nAlignment : Aligned on interleaves \nInterleave, duration : 134 ms (4.01 video frames) \nInterleave, preload duration : 216 ms \nTitle : VTS_02_1 T80 3_2ch 448Kbps DELAY 0ms_new \nWriting library : LAME3.99r \nEncoding settings : -m j -V 4 -q 2 -lowpass 13.5 -b 80 \n\n\n                                       \nSCREENS:-  \n\n &lt;a href=&quot;\nhttp://i.imgur.com/t8x1hKd.jpg&quot; rel=&quot;nofollow&quot; target=&quot;_NEW&quot;&gt;\nhttp://i.imgur.com/t8x1hKd.jpg&lt;/a&gt;\n &lt;a href=&quot;\nhttp://i.imgur.com/0W5F8yg.jpg&quot; rel=&quot;nofollow&quot; target=&quot;_NEW&quot;&gt;\nhttp://i.imgur.com/0W5F8yg.jpg&lt;/a&gt;\n &lt;a href=&quot;\nhttp://i.imgur.com/S89kJpl.jpg&quot; rel=&quot;nofollow&quot; target=&quot;_NEW&quot;&gt;\nhttp://i.imgur.com/S89kJpl.jpg&lt;/a&gt;\n &lt;a href=&quot;\nhttp://i.imgur.com/QCppgdn.jpg&quot; rel=&quot;nofollow&quot; target=&quot;_NEW&quot;&gt;\nhttp://i.imgur.com/QCppgdn.jpg&lt;/a&gt;\n &lt;a href=&quot;\nhttp://i.imgur.com/J05hFyW.jpg&quot; rel=&quot;nofollow&quot; target=&quot;_NEW&quot;&gt;\nhttp://i.imgur.com/J05hFyW.jpg&lt;/a&gt;\n &lt;a href=&quot;\nhttp://i.imgur.com/6CNtbd8.jpg&quot; rel=&quot;nofollow&quot; target=&quot;_NEW&quot;&gt;\nhttp://i.imgur.com/6CNtbd8.jpg&lt;/a&gt;\n &lt;a href=&quot;\nhttp://i.imgur.com/s6KPg27.jpg&quot; rel=&quot;nofollow&quot; target=&quot;_NEW&quot;&gt;\nhttp://i.imgur.com/s6KPg27.jpg&lt;/a&gt;\n &lt;a href=&quot;\nhttp://i.imgur.com/kQrSH1y.jpg&quot; rel=&quot;nofollow&quot; target=&quot;_NEW&quot;&gt;\nhttp://i.imgur.com/kQrSH1y.jpg&lt;/a&gt;\n &lt;a href=&quot;\nhttp://i.imgur.com/SYNGcm6.jpg&quot; rel=&quot;nofollow&quot; target=&quot;_NEW&quot;&gt;\nhttp://i.imgur.com/SYNGcm6.jpg&lt;/a&gt;\n &lt;a href=&quot;\nhttp://i.imgur.com/U3e0HdO.jpg&quot; rel=&quot;nofollow&quot; target=&quot;_NEW&quot;&gt;\nhttp://i.imgur.com/U3e0HdO.jpg&lt;/a&gt;\n &lt;a href=&quot;\nhttp://i.imgur.com/KLqAzE0.jpg&quot; rel=&quot;nofollow&quot; target=&quot;_NEW&quot;&gt;\nhttp://i.imgur.com/KLqAzE0.jpg&lt;/a&gt;\n &lt;a href=&quot;\nhttp://i.imgur.com/Mhtq2N8.jpg&quot; rel=&quot;nofollow&quot; target=&quot;_NEW&quot;&gt;\nhttp://i.imgur.com/Mhtq2N8.jpg&lt;/a&gt;\n\n\n\n\nSAMPLE AND SCREENSHOTS INCLUDED\n\n    \n             \n             ********** PLEASE SEED AS LONG AS YOU CAN AFTER DOWNLOAD **********\n       \n                    ***** THANK YOU REGARDS - VIKKYMAXX (SilverRG) *****\n","torrent":{"xt":"urn:btih:bdaa25f76cd9417454aa1e513161b10abfb3d7b4","amp;dn":"Bewakoofiyaan+%282014%29-DVDRip-1CD-+XviD+E-Subs+%7BVikkyMaxx%7D%5BSilverR","amp;tr":["udp%3A%2F%2Ftracker.openbittorrent.com%3A80","udp%3A%2F%2Fopen.demonii.com%3A1337","udp%3A%2F%2Ftracker.coppersurfer.tk%3A6969","udp%3A%2F%2Fexodus.desync.com%3A6969"],"infoHash":"bdaa25f76cd9417454aa1e513161b10abfb3d7b4","infoHashBuffer":{"type":"Buffer","data":[189,170,37,247,108,217,65,116,84,170,30,81,49,97,177,10,191,179,215,180]},"announce":[],"urlList":[]}}